<?xml version="1.0" encoding="UTF-8"?>
<svg version="1.1" xmlns="http://www.w3.org/2000/svg" width="1024" height="1024">
<path d="M0 0 C337.92 0 675.84 0 1024 0 C1024 337.92 1024 675.84 1024 1024 C686.08 1024 348.16 1024 0 1024 C0 686.08 0 348.16 0 0 Z " fill="#070808" transform="translate(0,0)"/>
<path d="M0 0 C1.1253289 0.01078583 1.1253289 0.01078583 2.27339172 0.02178955 C3.45888863 0.02135147 3.45888863 0.02135147 4.66833496 0.02090454 C7.28728621 0.02230071 9.90595487 0.03787528 12.52485657 0.05352783 C14.33803655 0.05725694 16.15121853 0.0601044 17.96440125 0.06210327 C22.74187258 0.06974776 27.51922274 0.08940321 32.29664612 0.11151123 C37.16957459 0.13195213 42.0425226 0.14110122 46.91548157 0.15118408 C56.48063904 0.17264836 66.04570649 0.20679411 75.61079407 0.24884033 C78.34762977 7.66773804 80.95070622 15.12073214 83.44673157 22.62384033 C83.97998047 24.22154015 83.97998047 24.22154015 84.52400208 25.85151672 C85.67973491 29.31669372 86.83296053 32.78269777 87.98579407 36.24884033 C88.38606812 37.45088104 88.78634216 38.65292175 89.19874573 39.89138794 C94.90934032 57.04345021 100.56166123 74.21337746 106.13960266 91.40899658 C111.04656934 106.53520639 115.99793507 121.64670679 120.95677185 136.75597 C128.65844714 160.22373574 136.331036 183.7007713 143.96626282 207.19024658 C146.51445225 215.02930997 149.06560913 222.86740754 151.61714172 230.7053833 C152.19369427 232.4765242 152.77019216 234.2476829 153.34663391 236.01885986 C157.16513096 247.75127316 160.99199749 259.48092389 164.8266449 271.20806885 C166.56528744 276.5256442 168.3025673 281.843655 170.03608704 287.16290283 C170.36521088 288.17280273 170.69433472 289.18270264 171.03343201 290.22320557 C171.67695623 292.19795448 172.32041076 294.17272611 172.96379089 296.14752197 C174.55192596 301.01800581 176.14885945 305.88528676 177.76573181 310.74630737 C178.72043323 313.62006019 179.66435555 316.4973575 180.61079407 319.37384033 C180.93096497 320.31952881 181.25113586 321.26521729 181.58100891 322.23956299 C183.14141864 327.01848739 184.2326251 331.15759875 183.61079407 336.24884033 C182.42695618 337.91548157 182.42695618 337.91548157 180.61079407 339.24884033 C178.14424133 339.63652039 178.14424133 339.63652039 175.17720032 339.65289307 C173.51032166 339.67191933 173.51032166 339.67191933 171.80976868 339.69132996 C170.60973206 339.68839432 169.40969543 339.68545868 168.17329407 339.68243408 C166.32586609 339.69029686 166.32586609 339.69029686 164.44111633 339.69831848 C161.16732767 339.70639407 157.89395648 339.69925923 154.62019348 339.68798828 C152.61261444 339.68634182 150.60560063 339.69832851 148.59809875 339.71539307 C144.74789236 339.74598414 140.89860215 339.74948345 137.04829407 339.74493408 C135.84825745 339.75616806 134.64822083 339.76740204 133.41181946 339.77897644 C132.30056702 339.76959549 131.18931458 339.76021454 130.04438782 339.75054932 C129.06526428 339.75038315 128.08614075 339.75021698 127.0773468 339.75004578 C124.61079407 339.24884033 124.61079407 339.24884033 122.86288452 337.46182251 C121.70611605 335.41731527 120.85867221 333.57140027 120.14375305 331.3394165 C119.8956337 330.57783737 119.64751434 329.81625824 119.39187622 329.03160095 C119.00330696 327.79915398 119.00330696 327.79915398 118.60688782 326.54180908 C118.32709579 325.67598709 118.04730377 324.8101651 117.7590332 323.91810608 C116.84805759 321.09316817 115.94800876 318.26488279 115.04829407 315.43634033 C114.42444865 313.49276696 113.79993281 311.54940866 113.17475891 309.60626221 C111.91630386 305.69186889 110.66187256 301.77621856 109.41011047 297.85968018 C107.78145662 292.77077516 106.12894261 287.68999493 104.46626282 282.61212158 C103.77319015 280.48962801 103.08048953 278.36701341 102.38792419 276.24435425 C101.95493161 274.91939977 101.52075722 273.59483088 101.08537292 272.2706604 C100.48817208 270.45223236 99.89696871 268.63183788 99.30610657 266.81134033 C98.9762677 265.80200439 98.64642883 264.79266846 98.30659485 263.75274658 C97.61079407 261.24884033 97.61079407 261.24884033 97.61079407 258.24884033 C56.36079407 258.24884033 15.11079407 258.24884033 -27.38920593 258.24884033 C-28.04920593 261.21884033 -28.70920593 264.18884033 -29.38920593 267.24884033 C-29.92099083 269.09497232 -30.48121337 270.93338294 -31.08158875 272.75836182 C-31.40242432 273.74066269 -31.72325989 274.72296356 -32.05381775 275.73503113 C-32.3965271 276.7695491 -32.73923645 277.80406708 -33.09233093 278.86993408 C-33.45260376 279.96870377 -33.81287659 281.06747345 -34.18406677 282.19953918 C-35.33177361 285.69647103 -36.48542634 289.19140806 -37.63920593 292.68634033 C-38.39870483 294.99806306 -39.15782268 297.30991102 -39.91654968 299.62188721 C-41.38594643 304.09677037 -42.86079941 308.56979426 -44.34037781 313.0413208 C-45.64129379 316.97370394 -46.9297307 320.90968632 -48.20365906 324.85089111 C-48.47788696 325.69241226 -48.75211487 326.53393341 -49.03465271 327.4009552 C-49.5363755 328.94086081 -50.03364138 330.48222889 -50.52549744 332.02531433 C-52.16342589 337.02306029 -52.16342589 337.02306029 -54.38920593 339.24884033 C-56.73550415 339.51626587 -56.73550415 339.51626587 -59.70927429 339.53936768 C-60.82060226 339.55212738 -61.93193024 339.56488708 -63.07693481 339.57803345 C-64.88473167 339.58137192 -64.88473167 339.58137192 -66.72904968 339.58477783 C-67.96208328 339.59143463 -69.19511688 339.59809143 -70.46551514 339.60494995 C-73.07735193 339.61509084 -75.68921471 339.61976653 -78.30107117 339.6194458 C-80.98331061 339.61928291 -83.66486967 339.63321376 -86.3469696 339.66046143 C-90.20371035 339.69698674 -94.0596536 339.70691345 -97.91654968 339.70977783 C-99.7213102 339.73133438 -99.7213102 339.73133438 -101.56253052 339.75332642 C-102.67701065 339.74717316 -103.79149078 339.7410199 -104.93974304 339.73468018 C-105.92188278 339.73753021 -106.90402252 339.74038025 -107.91592407 339.74331665 C-110.38920593 339.24884033 -110.38920593 339.24884033 -112.23265076 337.4307251 C-114.50252707 333.1485182 -112.79888797 328.70390498 -111.55531311 324.28710938 C-110.45467423 320.70440974 -109.29526732 317.1433306 -108.11967468 313.58477783 C-107.68215546 312.24223281 -107.24532173 310.89946423 -106.80912781 309.55648804 C-105.88464762 306.71440179 -104.95589624 303.8737643 -104.02357483 301.03424072 C-102.56766219 296.59965709 -101.12147031 292.16194603 -99.67753601 287.72344971 C-99.19570953 286.24255361 -98.71388275 284.76165762 -98.23205566 283.28076172 C-97.87611297 282.18666111 -97.87611297 282.18666111 -97.51297951 281.07045746 C-96.796811 278.87019096 -96.07972087 276.67022674 -95.36239624 274.47033691 C-91.7048398 263.24931687 -88.11098152 252.00933998 -84.57670593 240.74884033 C-84.10531933 239.24906909 -83.63388477 237.74931292 -83.16239929 236.24957275 C-82.50393042 234.15463794 -81.84557661 232.05966764 -81.18777466 229.96452332 C-78.92055268 222.7467925 -76.61772415 215.54057808 -74.30464172 208.33743286 C-72.73953346 203.46282715 -71.17719341 198.58739538 -69.6245575 193.70880127 C-64.74882497 178.40064422 -59.75362857 163.13302279 -54.72703552 147.87390137 C-47.81934443 126.90123573 -40.96494379 105.91372558 -34.26420593 84.87384033 C-28.66312864 67.30412041 -23.01841926 49.74892666 -17.30528259 32.21533203 C-16.44844718 29.58508437 -15.59451489 26.95392236 -14.7431488 24.32189941 C-13.5617829 20.6702757 -12.37056844 17.02190955 -11.17826843 13.37384033 C-10.82383667 12.2743808 -10.46940491 11.17492126 -10.10423279 10.04214478 C-9.77497803 9.04043243 -9.44572327 8.03872009 -9.10649109 7.00665283 C-8.82165863 6.13154053 -8.53682617 5.25642822 -8.24336243 4.35479736 C-6.47508119 -0.0049708 -4.38568084 0.01762056 0 0 Z " fill="#FEFEFE" transform="translate(653.3892059326172,325.75115966796875)"/>
<path d="M0 0 C5.5265512 1.17870401 10.03193466 4.84428812 14.60546875 7.98828125 C16.6685604 9.37149602 18.73370056 10.75165984 20.80078125 12.12890625 C22.34620605 13.16047852 22.34620605 13.16047852 23.92285156 14.21289062 C28.20121226 17.01677227 32.57441748 19.6413195 36.98046875 22.23828125 C44.96841651 26.96509438 52.81443187 31.88490649 60.63037109 36.89038086 C66.92192851 40.91611317 73.24757096 44.88071507 79.60546875 48.80078125 C90.17872171 55.3223802 100.68487084 61.94691668 111.17138672 68.60693359 C120.97673671 74.83428084 130.82839153 80.97821263 140.73046875 87.05078125 C149.77217598 92.59705429 158.75933905 98.21851703 167.69458008 103.93457031 C175.75101912 109.08491301 183.85739566 114.15337134 191.97705078 119.20336914 C194.62809164 120.85447966 197.27513341 122.51157356 199.91796875 124.17578125 C200.57152344 124.58666992 201.22507812 124.99755859 201.8984375 125.42089844 C205.79618546 127.93221467 205.79618546 127.93221467 206.91796875 130.17578125 C207.03336954 131.78270803 207.08747032 133.39423128 207.11083984 135.00512695 C207.12690277 136.00989578 207.1429657 137.01466461 207.15951538 138.04988098 C207.2039198 142.64709848 207.24502813 147.244171 207.26806641 151.84155273 C207.28463196 154.26743153 207.3119295 156.6932614 207.35009766 159.11889648 C207.40481414 162.61337653 207.42673316 166.10671198 207.44140625 169.6015625 C207.46407562 170.68504471 207.486745 171.76852692 207.51010132 172.88484192 C207.48893591 180.41684808 207.48893591 180.41684808 204.61083984 184.24243164 C203.72219238 184.88043701 202.83354492 185.51844238 201.91796875 186.17578125 C201.30469727 186.63871582 200.69142578 187.10165039 200.05957031 187.57861328 C199.48174805 187.94325684 198.90392578 188.30790039 198.30859375 188.68359375 C197.64553223 189.10697021 196.9824707 189.53034668 196.29931641 189.96655273 C195.59597168 190.40684814 194.89262695 190.84714355 194.16796875 191.30078125 C192.63919297 192.27323324 191.11055079 193.24589529 189.58203125 194.21875 C188.80504883 194.71036621 188.02806641 195.20198242 187.22753906 195.70849609 C184.34507749 197.53974282 181.48192314 199.39965827 178.61962891 201.26220703 C172.04542287 205.5393827 165.43320859 209.75197563 158.79296875 213.92578125 C151.55539811 218.47556058 144.38234428 223.11755853 137.23046875 227.80078125 C130.25638232 232.36616772 123.25916668 236.87940213 116.17480469 241.27148438 C106.79578636 247.09619933 97.52472361 253.09189414 88.23193359 259.05273438 C84.91764679 261.17598751 81.60000971 263.29390245 78.28125 265.41015625 C65.15028556 273.77300805 65.15028556 273.77300805 52.16796875 282.36328125 C45.58251063 286.80984075 38.83586269 290.97817966 32.05712891 295.12280273 C27.43983361 297.95612398 22.87577137 300.84375482 18.375 303.859375 C17.47998779 304.45645264 16.58497559 305.05353027 15.6628418 305.66870117 C13.96043497 306.81046074 12.26482555 307.96244502 10.57739258 309.1262207 C6.13368294 312.0996705 2.46953666 314.475866 -3.08203125 314.17578125 C-5.70902788 311.99955 -6.92559284 310.1799649 -7.45462036 306.78411865 C-7.61289308 303.75131888 -7.63617493 300.74391755 -7.61328125 297.70703125 C-7.61710815 296.59396606 -7.62093506 295.48090088 -7.62487793 294.33410645 C-7.62759639 291.98395888 -7.62023995 289.63378103 -7.60351562 287.28369141 C-7.58210663 283.68844076 -7.60332122 280.09518856 -7.62890625 276.5 C-7.62626296 274.21483934 -7.62113797 271.92967993 -7.61328125 269.64453125 C-7.62137817 268.57046021 -7.6294751 267.49638916 -7.63781738 266.38977051 C-7.54476494 258.97619596 -7.54476494 258.97619596 -5.33666992 255.15673828 C-3.12339492 253.21212395 -0.98179217 251.56166566 1.5234375 250.01171875 C2.86112183 249.17374756 2.86112183 249.17374756 4.22583008 248.31884766 C5.65125122 247.44365479 5.65125122 247.44365479 7.10546875 246.55078125 C9.11363879 245.29614501 11.12144827 244.04093148 13.12890625 242.78515625 C14.11858398 242.16962891 15.10826172 241.55410156 16.12792969 240.91992188 C19.85663517 238.58899153 23.54661451 236.20172168 27.23046875 233.80078125 C34.27274578 229.22738303 41.34298446 224.69838777 48.41796875 220.17578125 C58.27269742 213.87509614 68.10600637 207.54280664 77.91796875 201.17578125 C88.73502316 194.15654724 99.58305045 187.18751809 110.44897461 180.24414062 C118.11495466 175.34109172 125.75621258 170.40149747 133.37426758 165.42431641 C138.18707122 162.28352524 143.03238014 159.2021712 147.91796875 156.17578125 C145.46891985 153.47784942 142.78105834 151.7292023 139.67578125 149.83984375 C138.62011963 149.1943457 137.56445801 148.54884766 136.47680664 147.88378906 C135.3321975 147.18944737 134.18758479 146.49511157 133.04296875 145.80078125 C131.86355575 145.08088698 130.68444098 144.36050393 129.50561523 143.63964844 C127.11554284 142.17843355 124.72443839 140.71893242 122.33251953 139.26074219 C117.536666 136.33490769 112.75678969 133.38337206 107.98046875 130.42578125 C106.69910034 129.63288696 106.69910034 129.63288696 105.3918457 128.82397461 C99.81760961 125.36894011 94.26872887 121.87562188 88.73046875 118.36328125 C77.91286681 111.50437346 66.98949646 104.81841258 56.07470703 98.11572266 C43.92490781 90.64918711 31.79764486 83.14786109 19.76171875 75.4987793 C15.96755663 73.0892452 12.16171779 70.70611571 8.31640625 68.37890625 C7.21969604 67.71024536 7.21969604 67.71024536 6.10083008 67.02807617 C4.73554954 66.19758946 3.36588899 65.37423946 1.9909668 64.55981445 C-1.93916694 62.15942006 -4.7294841 60.14654722 -7.08203125 56.17578125 C-7.68088623 52.26959405 -7.64234748 48.39859396 -7.61328125 44.453125 C-7.61710815 43.3154921 -7.62093506 42.17785919 -7.62487793 41.00575256 C-7.62759642 38.60433058 -7.62023979 36.20287896 -7.60351562 33.80151367 C-7.58208708 30.12286546 -7.60333147 26.44616604 -7.62890625 22.76757812 C-7.62626335 20.43358944 -7.62113917 18.09960196 -7.61328125 15.765625 C-7.62137817 14.66451889 -7.6294751 13.56341278 -7.63781738 12.42893982 C-7.62520874 11.4043013 -7.6126001 10.37966278 -7.59960938 9.32397461 C-7.596427 8.42416367 -7.59324463 7.52435272 -7.58996582 6.59727478 C-6.67304636 2.22601386 -4.38791584 0.25026136 0 0 Z " fill="#FEFEFE" transform="translate(197.08203125,328.82421875)"/>
<path d="M0 0 C1.12439484 -0.00571014 2.24878967 -0.01142029 3.40725708 -0.01730347 C4.64161499 -0.01842133 5.8759729 -0.01953918 7.1477356 -0.02069092 C8.44712067 -0.02565582 9.74650574 -0.03062073 11.08526611 -0.03573608 C14.65142565 -0.04885245 18.21756636 -0.05530343 21.78374624 -0.05974674 C24.01185071 -0.06267842 26.23995003 -0.06678339 28.46805191 -0.07125092 C35.43965375 -0.08492322 42.41124384 -0.09459144 49.38285816 -0.09845281 C57.43004411 -0.10293445 65.47706028 -0.12048828 73.5241946 -0.1494534 C79.74509208 -0.17106783 85.96594178 -0.18115694 92.18687642 -0.18249393 C95.90215591 -0.18354204 99.61727576 -0.18945115 103.33251572 -0.20731354 C107.4767564 -0.22685121 111.62064148 -0.22250624 115.7649231 -0.21600342 C117.61038727 -0.22982559 117.61038727 -0.22982559 119.49313354 -0.243927 C120.62316803 -0.23835785 121.75320251 -0.2327887 122.91748047 -0.22705078 C124.38696546 -0.22925062 124.38696546 -0.22925062 125.88613701 -0.2314949 C130.03857073 0.34060852 132.68728638 2.08126237 135.37332153 5.24786377 C137.08791199 9.33857414 137.01535732 13.0277723 136.98416138 17.42169189 C136.98846664 18.758349 136.98846664 18.758349 136.99285889 20.12200928 C136.9948955 22.0013696 136.98939386 23.88075132 136.97683716 25.7600708 C136.96077762 28.63083455 136.97669937 31.5001905 136.99588013 34.37091064 C136.99389762 36.20034082 136.9900538 38.02977013 136.98416138 39.85919189 C136.99023407 40.71452515 136.99630676 41.5698584 137.00256348 42.45111084 C136.94747656 47.13660792 136.74219448 50.41923809 133.58572388 54.14044189 C129.89368018 56.77401413 127.36670842 57.51706844 122.85501099 57.52812195 C121.71103851 57.53802658 120.56706604 57.54793121 119.38842773 57.55813599 C118.1425589 57.55363434 116.89669006 57.54913269 115.61306763 57.54449463 C114.29388336 57.55135788 112.9746991 57.55822113 111.61553955 57.56529236 C108.0039742 57.58321655 104.3926519 57.58205704 100.78105545 57.57634997 C97.7640696 57.57325749 94.74713039 57.57935112 91.73015118 57.58538872 C84.61263325 57.59942945 77.49523537 57.59787603 70.37771606 57.58648682 C63.03796437 57.57500145 55.6985779 57.58908905 48.35887432 57.61588329 C42.05298891 57.63804049 35.74721815 57.64467779 29.44129658 57.63880688 C25.67683984 57.63543665 21.91261731 57.63785665 18.14819336 57.65505791 C13.95135356 57.67339878 9.75522472 57.6593399 5.55838013 57.64215088 C4.31251129 57.65181885 3.06664246 57.66148682 1.78302002 57.67144775 C0.63904755 57.66161362 -0.50492493 57.65177948 -1.68356323 57.64164734 C-3.1712748 57.64133341 -3.1712748 57.64133341 -4.68904114 57.64101315 C-8.17787882 57.00018333 -9.86851907 55.5584038 -12.41427612 53.14044189 C-13.55735148 50.85429117 -13.56406738 49.51243479 -13.60714722 46.96954346 C-13.62321014 46.10814758 -13.63927307 45.24675171 -13.65582275 44.35925293 C-13.70032159 40.41295159 -13.74134945 36.46681843 -13.76437378 32.52032471 C-13.78091927 30.44078367 -13.80819062 28.36129917 -13.84640503 26.28204346 C-13.90126543 23.28141826 -13.92306314 20.28212657 -13.93771362 17.28106689 C-13.960383 16.35586243 -13.98305237 15.43065796 -14.00640869 14.47741699 C-13.99215112 10.10512948 -13.84387374 7.07353559 -11.06906128 3.56915283 C-7.37544162 0.19007169 -4.82351369 0.01465756 0 0 Z " fill="#FEFEFE" transform="translate(374.4142761230469,607.8595581054688)"/>
<path d="M0 0 C2 1 2 1 3.01123047 3.45019531 C3.5586792 5.12227051 3.5586792 5.12227051 4.1171875 6.828125 C4.32607101 7.45907074 4.53495453 8.09001648 4.75016785 8.74008179 C5.46568393 10.90774351 6.17021134 13.07882859 6.875 15.25 C7.39054901 16.8197109 7.90676684 18.38920226 8.42358398 19.95849609 C9.60532416 23.55195491 10.78193914 27.14704756 11.95556641 30.74316406 C14.03407375 37.10967316 16.12543818 43.47192887 18.21768188 49.83393478 C22.72818716 63.55033081 27.2227149 77.27191337 31.70947266 90.99609375 C33.42881927 96.25520867 35.15176433 101.5131303 36.87669373 106.77041626 C37.93620074 110.0026199 38.99207231 113.23599896 40.0463562 116.46990967 C40.51045704 117.89133801 40.97602155 119.31228941 41.44314575 120.73272705 C42.06516154 122.62516087 42.68122703 124.51954753 43.296875 126.4140625 C43.63041992 127.4345166 43.96396484 128.4549707 44.30761719 129.50634766 C45 132 45 132 45 135 C16.29 135 -12.42 135 -42 135 C-40.87492128 125.99937026 -40.87492128 125.99937026 -39.94360352 123.07958984 C-39.73528397 122.41496735 -39.52696442 121.75034485 -39.31233215 121.06558228 C-39.08680161 120.3710495 -38.86127106 119.67651672 -38.62890625 118.9609375 C-38.39149216 118.21137787 -38.15407806 117.46181824 -37.9094696 116.68954468 C-37.13418743 114.24905358 -36.34861652 111.81202065 -35.5625 109.375 C-35.01165225 107.65019025 -34.46120177 105.92525359 -33.91113281 104.20019531 C-30.39505539 93.20286425 -26.77497052 82.24269088 -23.08789062 71.30151367 C-18.04333359 56.26877368 -13.26012911 41.15116086 -8.44433594 26.04394531 C-8.10710007 24.98639542 -7.7698642 23.92884552 -7.42240906 22.83924866 C-6.7889539 20.85201971 -6.15610773 18.86459648 -5.52400208 16.87693787 C-3.72693474 11.23606731 -1.8884104 5.61096745 0 0 Z " fill="#080808" transform="translate(687,393)"/>
<path d="M0 0 C0 0.99 0 1.98 0 3 C-28.71 3 -57.42 3 -87 3 C-87 2.34 -87 1.68 -87 1 C-75.95191927 0.86947822 -64.90383707 0.73908229 -53.85575294 0.60884857 C-48.72610018 0.54837675 -43.59644795 0.487861 -38.46679688 0.42724609 C-33.51960748 0.36878886 -28.57241675 0.3104454 -23.62522507 0.25218201 C-21.73452074 0.22989484 -19.8438169 0.20756614 -17.95311356 0.18519592 C-15.31200536 0.15395412 -12.67089549 0.12285782 -10.02978516 0.09179688 C-8.84835182 0.07777077 -8.84835182 0.07777077 -7.64305115 0.0634613 C-2.22810432 0 -2.22810432 0 0 0 Z " fill="#2B2B2C" transform="translate(732,525)"/>
<path d="M0 0 C0.99 0.33 1.98 0.66 3 1 C2.67 2.32 2.34 3.64 2 5 C-26.05 5 -54.1 5 -83 5 C-82.67 4.01 -82.34 3.02 -82 2 C-81.34 2.33 -80.68 2.66 -80 3 C-77.4682761 3.12221229 -74.96221479 3.18564445 -72.42919922 3.20532227 C-71.64862152 3.21522186 -70.86804382 3.22512146 -70.06381226 3.23532104 C-67.47746845 3.26696978 -64.89110625 3.29170676 -62.3046875 3.31640625 C-60.51392126 3.33697287 -58.72315992 3.35796926 -56.93240356 3.37937927 C-52.21421257 3.43463013 -47.49597755 3.4840261 -42.77770996 3.53222656 C-37.96504793 3.5824196 -33.15245 3.63811712 -28.33984375 3.69335938 C-18.8932839 3.80097781 -9.44666844 3.90241459 0 4 C0 2.68 0 1.36 0 0 Z " fill="#111113" transform="translate(728,521)"/>
<path d="M0 0 C0.99 0 1.98 0 3 0 C2.34 2.64 1.68 5.28 1 8 C0.34 8 -0.32 8 -1 8 C-0.79375 8.5775 -0.5875 9.155 -0.375 9.75 C0.097549 12.58529401 -0.64499494 13.51582406 -2 16 C-2.37668344 17.65740715 -2.72057545 19.32345271 -3 21 C-3.66 21 -4.32 21 -5 21 C-5 22.98 -5 24.96 -5 27 C-5.99 27 -6.98 27 -8 27 C-5.62971149 17.90425874 -2.84301919 8.95607231 0 0 Z " fill="#141314" transform="translate(658,482)"/>
<path d="M0 0 C0.66 0 1.32 0 2 0 C4.44253816 6.63328891 6.79988629 13.28249304 9 20 C9.391875 21.175625 9.78375 22.35125 10.1875 23.5625 C10.455625 24.366875 10.72375 25.17125 11 26 C10.01 26 9.02 26 8 26 C6.6618184 22.04328884 5.330278 18.08437472 4 14.125 C3.6184375 12.99707031 3.236875 11.86914062 2.84375 10.70703125 C2.4828125 9.63066406 2.121875 8.55429687 1.75 7.4453125 C1.41484375 6.45031738 1.0796875 5.45532227 0.734375 4.43017578 C0 2 0 2 0 0 Z " fill="#100F10" transform="translate(735,344)"/>
<path d="M0 0 C1.69946788 2.54920182 2.56531331 4.32099564 3.5078125 7.16015625 C3.77207031 7.95357422 4.03632812 8.74699219 4.30859375 9.56445312 C4.57800781 10.38880859 4.84742188 11.21316406 5.125 12.0625 C5.40214844 12.89072266 5.67929687 13.71894531 5.96484375 14.57226562 C8 20.73287408 8 20.73287408 8 23 C7.34 23 6.68 23 6 23 C5.67 21.02 5.34 19.04 5 17 C4.34 17 3.68 17 3 17 C2.87882813 16.43152344 2.75765625 15.86304688 2.6328125 15.27734375 C1.58677946 10.45754536 0.40795516 5.7267066 -1 1 C-0.67 0.67 -0.34 0.34 0 0 Z " fill="#141415" transform="translate(700,430)"/>
<path d="M0 0 C2 1 2 1 3.10546875 3.6171875 C3.46253906 4.69226563 3.81960938 5.76734375 4.1875 6.875 C4.55230469 7.94492187 4.91710937 9.01484375 5.29296875 10.1171875 C6 13 6 13 5 16 C2.20966654 13.61724334 1.27016708 11.4977157 0.25 8 C-0.01296875 7.13375 -0.2759375 6.2675 -0.546875 5.375 C-1 3 -1 3 0 0 Z " fill="#0F0F10" transform="translate(687,393)"/>
<path d="M0 0 C0.99 0 1.98 0 3 0 C3.12117187 0.66386719 3.24234375 1.32773437 3.3671875 2.01171875 C4.22547708 6.53424459 5.03971311 10.79938524 7 15 C6.01 15 5.02 15 4 15 C3.32779649 13.06441401 2.66241923 11.12645628 2 9.1875 C1.62875 8.10855469 1.2575 7.02960938 0.875 5.91796875 C0 3 0 3 0 0 Z " fill="#0F0F10" transform="translate(775,465)"/>
<path d="M0 0 C1.26704387 3.8011316 0.50086815 5.36333128 -0.75 9.125 C-1.09546875 10.20007813 -1.4409375 11.27515625 -1.796875 12.3828125 C-2.19390625 13.24648438 -2.5909375 14.11015625 -3 15 C-3.99 15.33 -4.98 15.66 -6 16 C-5.7834375 15.30132813 -5.566875 14.60265625 -5.34375 13.8828125 C-5.0653125 12.97273437 -4.786875 12.06265625 -4.5 11.125 C-4.2215625 10.22007812 -3.943125 9.31515625 -3.65625 8.3828125 C-2.91149206 6.09055353 -2.91149206 6.09055353 -3 4 C-2.34 4 -1.68 4 -1 4 C-0.67 2.68 -0.34 1.36 0 0 Z " fill="#121213" transform="translate(563,582)"/>
<path d="M0 0 C1.44017842 2.88035684 0.46304691 4.45815266 -0.4375 7.5 C-1.59659709 11.19501981 -1.59659709 11.19501981 -2 15 C-2.66 15 -3.32 15 -4 15 C-4.33 15.99 -4.66 16.98 -5 18 C-6 16 -6 16 -5.0390625 12.55859375 C-4.57540556 11.18227876 -4.10369546 9.80865695 -3.625 8.4375 C-3.39039063 7.73947266 -3.15578125 7.04144531 -2.9140625 6.32226562 C-1.14721788 1.14721788 -1.14721788 1.14721788 0 0 Z " fill="#181819" transform="translate(684,404)"/>
<path d="M0 0 C1.1351555 3.4054665 0.84899821 4.31723087 -0.25 7.625 C-0.62898437 8.81996094 -0.62898437 8.81996094 -1.015625 10.0390625 C-2 12 -2 12 -5 13 C-4.39254603 8.14036821 -2.27241033 4.2594482 0 0 Z " fill="#111111" transform="translate(625,390)"/>
<path d="M0 0 C2 1 2 1 2.6328125 2.84765625 C2.79523437 3.57855469 2.95765625 4.30945313 3.125 5.0625 C3.29257812 5.79597656 3.46015625 6.52945313 3.6328125 7.28515625 C3.75398437 7.85105469 3.87515625 8.41695312 4 9 C3.01 9 2.02 9 1 9 C-1.09230769 4.56923077 -1.09230769 4.56923077 -0.625 1.6875 C-0.41875 1.130625 -0.2125 0.57375 0 0 Z " fill="#161618" transform="translate(769,644)"/>
<path d="M0 0 C0.66 0 1.32 0 2 0 C3.96189209 3.6678852 5.39301257 6.87248551 6 11 C5.01 11 4.02 11 3 11 C2.01 7.37 1.02 3.74 0 0 Z " fill="#0F0F0F" transform="translate(818,598)"/>
<path d="M0 0 C1.15957207 3.47871621 0.77456651 4.34219645 -0.4375 7.6875 C-0.86869141 8.89986328 -0.86869141 8.89986328 -1.30859375 10.13671875 C-1.53675781 10.75160156 -1.76492188 11.36648438 -2 12 C-4 9 -4 9 -3.828125 6.9921875 C-3.63734375 6.29351563 -3.4465625 5.59484375 -3.25 4.875 C-3.06953125 4.17117188 -2.8890625 3.46734375 -2.703125 2.7421875 C-2 1 -2 1 0 0 Z " fill="#141315" transform="translate(573,551)"/>
<path d="M0 0 C0.99 0 1.98 0 3 0 C3.66 3.3 4.32 6.6 5 10 C4.01 10.495 4.01 10.495 3 11 C2.01 7.37 1.02 3.74 0 0 Z " fill="#131314" transform="translate(790,512)"/>
<path d="M0 0 C0.66 0.33 1.32 0.66 2 1 C1.57742724 2.4835001 1.13643678 3.96176424 0.6875 5.4375 C0.44386719 6.26121094 0.20023438 7.08492188 -0.05078125 7.93359375 C-0.36402344 8.61550781 -0.67726563 9.29742187 -1 10 C-1.99 10.33 -2.98 10.66 -4 11 C-3.67 9.02 -3.34 7.04 -3 5 C-2.34 5 -1.68 5 -1 5 C-0.67 3.35 -0.34 1.7 0 0 Z " fill="#100F11" transform="translate(610,435)"/>
<path d="M0 0 C3.63 1.98 7.26 3.96 11 6 C10.67 6.99 10.34 7.98 10 9 C9.443125 8.3503125 9.443125 8.3503125 8.875 7.6875 C6.94960314 5.79545295 6.94960314 5.79545295 3.875 4.5 C1 3 1 3 0 0 Z " fill="#121213" transform="translate(204,396)"/>
<path d="M0 0 C2.12046792 3.53411321 2.53199289 6.94393835 3 11 C2.34 11 1.68 11 1 11 C-0.62950412 6.87831311 -1.26264601 4.29299643 0 0 Z " fill="#0F0F10" transform="translate(762,420)"/>
<path d="M0 0 C1.96301592 3.50538557 2.95902388 7.13351728 4 11 C3.01 10.67 2.02 10.34 1 10 C0.234375 7.96875 0.234375 7.96875 -0.25 5.5 C-0.42015625 4.6853125 -0.5903125 3.870625 -0.765625 3.03125 C-0.84296875 2.3609375 -0.9203125 1.690625 -1 1 C-0.67 0.67 -0.34 0.34 0 0 Z " fill="#0D0D0E" transform="translate(746,372)"/>
<path d="M0 0 C0.66 0.66 1.32 1.32 2 2 C1.34 2 0.68 2 0 2 C0.2475 2.556875 0.495 3.11375 0.75 3.6875 C1 6 1 6 -0.9375 8.75 C-1.618125 9.4925 -2.29875 10.235 -3 11 C-2.53199289 6.94393835 -2.12046792 3.53411321 0 0 Z " fill="#131314" transform="translate(619,607)"/>
<path d="M0 0 C0.66 0 1.32 0 2 0 C2.99 3.3 3.98 6.6 5 10 C2 9 2 9 0.8125 6.6875 C0 4 0 4 0 0 Z " fill="#121212" transform="translate(710,464)"/>
<path d="M0 0 C0.66 0 1.32 0 2 0 C2.66 2.97 3.32 5.94 4 9 C3.01 9.495 3.01 9.495 2 10 C1.34 6.7 0.68 3.4 0 0 Z " fill="#121213" transform="translate(693,412)"/>
</svg>
